<svg version="1.1" xmlns="http://www.w3.org/2000/svg" xmlns:xlink="http://www.w3.org/1999/xlink" width="432.72755" height="231.16604" viewBox="0,0,432.72755,231.16604"><g transform="translate(-17.13443,-116.0202)"><g data-paper-data="{&quot;isPaintingLayer&quot;:true}" fill-rule="nonzero" stroke-linejoin="miter" stroke-miterlimit="10" stroke-dasharray="" stroke-dashoffset="0" style="mix-blend-mode: normal"><path d="M414.37359,253.51398c0,-15.37321 0,-51.27953 0,-58.33333c0,-2.30199 -2.35594,-5.66667 -5.76886,-5.66667c-10.7833,0 -70.51103,0 -138.21242,0c-87.2028,0 -187.63449,0 -213.74181,0c-4.18931,0 -6.46484,3.30453 -6.46484,6.66667c0,7.9319 0,40.92113 0,56.33333c0,4.88172 2.61739,8 7.4059,8c49.10294,0 326.502,0 351.01318,0c3.41292,0 5.76886,-2.69486 5.76886,-7z" fill="#000000" stroke="#000000" stroke-width="15" stroke-linecap="butt"/><path d="M414.37359,253.51398c0,-15.37321 0,-51.27953 0,-58.33333c0,-2.30199 -2.35594,-5.66667 -5.76886,-5.66667c-24.67273,0 -305.57803,0 -351.95423,0c-4.18931,0 -6.46484,3.30453 -6.46484,6.66667c0,7.9319 0,40.92113 0,56.33333c0,4.88172 2.61739,8 7.4059,8c49.10294,0 326.502,0 351.01318,0c3.41292,0 5.76886,-2.69486 5.76886,-7z" fill="#000000" stroke="#ffffff" stroke-width="7" stroke-linecap="butt"/><path d="M414.37359,253.51398c0,-15.37321 0,-51.27953 0,-58.33333c0,-2.30199 -2.35594,-5.66667 -5.76886,-5.66667c-24.67273,0 -305.57803,0 -351.95423,0c-4.18931,0 -6.46484,3.30453 -6.46484,6.66667c0,7.9319 0,40.92113 0,56.33333c0,4.88172 2.61739,8 7.4059,8c49.10294,0 326.502,0 351.01318,0c3.41292,0 5.76886,-2.69486 5.76886,-7z" fill="#000000" stroke="none" stroke-width="0" stroke-linecap="butt"/><path d="M304.49433,255.25029v-60.91416h-150.73962v60.91416z" fill="#000000" stroke="#000000" stroke-width="2" stroke-linecap="butt"/><path d="M279.77112,250.72257c1.07779,0 2.056,-0.38591 2.93463,-1.15775c0.87863,-0.75938 1.64012,-1.79887 2.28445,-3.11845c1.15979,-2.29061 2.02086,-5.43396 2.58317,-9.43006c0.39831,-2.76366 0.69705,-5.95057 0.8962,-9.56075l0.05272,-3.37988v-3.4359c0.04686,-1.10795 0.07029,-2.44621 0.07029,-4.01477c0,-2.55202 -0.09957,-4.80528 -0.29874,-6.75975c-0.16402,-2.04162 -0.56233,-4.05834 -1.19494,-6.05017c-0.64433,-1.74285 -1.56397,-2.97529 -2.75891,-3.69732c-0.72633,-0.34857 -1.44681,-0.52285 -2.16143,-0.52285c-2.12043,0 -3.80155,0.89632 -5.04334,2.68896c-1.35895,1.99182 -2.26101,4.22018 -2.70619,6.68506c-0.63261,2.97529 -0.98992,5.81986 -1.07193,8.53372c-0.16402,3.02508 -0.24602,5.87588 -0.24602,8.55239v3.62263c0,0.72203 0.09957,2.08519 0.29874,4.08946c0.16402,1.56856 0.24602,2.90682 0.24602,4.01477v0.24275c0.2343,1.19509 0.35146,2.60182 0.35146,4.22018c0,1.18265 0.24016,2.41509 0.72048,3.69734c0.48032,1.26979 1.15979,2.35284 2.03843,3.24916c0.89034,1.02081 1.89199,1.53121 3.00492,1.53121zM279.64811,247.21199c-0.79663,0 -1.4761,-0.78428 -2.03843,-2.35284c-0.48032,-1.40674 -0.82592,-3.11847 -1.03679,-5.13519c-0.22259,-2.01672 -0.41588,-4.3011 -0.5799,-6.85312c-0.082,-1.10795 -0.12301,-2.53335 -0.12301,-4.2762l0.07029,-5.86343c0.082,-2.2906 0.32217,-5.15384 0.72048,-8.58974c0.31631,-2.93794 0.91377,-5.53354 1.79241,-7.78679c0.39831,-1.05815 0.90207,-1.88601 1.51125,-2.48356c0.59747,-0.59755 1.23594,-0.89632 1.91542,-0.89632c0.99578,0 1.73384,0.82785 2.21415,2.48356c0.59747,1.74285 0.99578,3.65998 1.19494,5.75139c0.24602,2.2408 0.38659,4.38201 0.42174,6.42363l0.05272,2.11009c0.04686,0.59755 0.07029,1.40673 0.07029,2.42754v0.24275c0,2.8508 -0.28116,6.35517 -0.84349,10.5131c-0.64433,5.6518 -1.58154,9.66657 -2.81162,12.04433c-0.80834,1.49387 -1.65182,2.2408 -2.53046,2.2408zM251.52112,249.88229c0.79663,0 2.43674,-4.3758 4.92034,-13.12738c2.79991,-10.233 5.21907,-19.64436 7.25749,-28.2341v20.91415c0,1.78019 -0.15815,4.81772 -0.47446,9.11259c-0.28116,4.66835 -0.42174,7.68099 -0.42174,9.03792c0,0.38591 0.22259,0.71581 0.66776,0.98969c0.43346,0.27387 0.93135,0.41081 1.49367,0.41081c0.83177,0 1.24766,-0.33612 1.24766,-1.00836l-0.10544,-1.84866c-0.082,-1.35694 -0.12301,-2.25327 -0.12301,-2.68898c0,-2.2408 0.11715,-5.80741 0.35146,-10.69983c0.24602,-4.96711 0.36902,-7.98597 0.36902,-9.05657v-8.14158c0,-1.31958 -0.06443,-3.27406 -0.1933,-5.86343c-0.15229,-2.25325 -0.22844,-4.20773 -0.22844,-5.86343v-0.39214c0,-2.12876 -0.43931,-3.19314 -1.31795,-3.19314c-0.52718,0 -1.18908,0.93989 -1.98571,2.81968c-1.32381,3.04998 -3.00492,8.52749 -5.04334,16.43255c-1.15979,4.59364 -2.51875,10.50065 -4.07685,17.72101c0.04686,-0.17429 -0.26945,1.29469 -0.94892,4.40691l-0.07029,0.31745c0,-4.12058 -0.041,-7.81791 -0.12301,-11.09197l-0.10544,-11.09197v-18.86008c-0.16402,-1.07061 -0.80834,-1.60591 -1.93299,-1.60591c-1.07779,0 -1.61668,0.82785 -1.61668,2.48356v0.39214c0.24602,0.51041 0.36902,1.12663 0.36902,1.84866c0,2.58937 0.05858,6.49833 0.17572,11.72686c0.11715,5.26588 0.17572,9.21841 0.17572,11.85758v19.43897c0,0.67224 0.16987,1.31336 0.50961,1.92335c0.33974,0.62245 0.74977,0.93367 1.23008,0.93367zM238.86612,249.63953c0.52718,0 1.00164,-0.20541 1.42338,-0.61622c0.41003,-0.39837 0.61504,-0.87765 0.61504,-1.43785c0,-0.37347 -0.07615,-0.8403 -0.22844,-1.4005c-0.12887,-0.59755 -0.1933,-1.03948 -0.1933,-1.32581c0,-3.78448 0.20501,-11.05464 0.61504,-21.81049c0.39831,-9.17484 0.59747,-16.4201 0.59747,-21.73578c0,-0.37347 -0.14058,-0.67847 -0.42174,-0.91499c-0.28116,-0.23653 -0.6209,-0.35479 -1.01921,-0.35479c-0.48032,0 -0.90207,0.18051 -1.26523,0.54153c-0.36316,0.36102 -0.54475,0.79673 -0.54475,1.30713c0,2.55202 -0.11715,6.38006 -0.35146,11.48411c-0.19916,5.63935 -0.29874,9.46116 -0.29874,11.46544l-0.07029,0.76561v0.76561v0.44816v0.31745c-0.11715,3.69732 -0.17572,9.21841 -0.17572,16.56326v1.66195h-4.6216c-0.83177,0.63489 -1.24766,1.26979 -1.24766,1.90468c0,0.47306 0.15229,0.89009 0.45689,1.25111c0.29287,0.36102 0.63848,0.54153 1.03679,0.54153c0.11715,0 0.33974,-0.04357 0.66776,-0.13071l0.22844,-0.05602c0.24602,0.03735 0.62675,0.05602 1.14222,0.05602h1.01921c0.28116,-0.03735 0.60333,-0.05602 0.96649,-0.05602c0.39831,0.51041 0.95478,0.76561 1.6694,0.76561zM222.8531,248.87393c3.44424,0 5.16635,-0.64112 5.16635,-1.92335c0,-1.02081 -0.60333,-1.53121 -1.80998,-1.53121h-0.72048c-0.15229,0.04979 -0.32802,0.07469 -0.52718,0.07469c-0.32802,0 -0.56233,-0.10581 -0.7029,-0.31745c-0.14058,-0.21163 -0.21087,-0.59755 -0.21087,-1.15777c0,-3.61018 0.20501,-8.53995 0.61504,-14.78929c0.35146,-6.49833 0.52718,-11.40319 0.52718,-14.7146c0,-1.19509 -0.01757,-2.27815 -0.05272,-3.24916l-0.07029,-3.24916c0,-1.40673 0.06443,-2.57692 0.1933,-3.51059c0.43346,0.17429 0.89034,0.26143 1.37066,0.26143c0.92549,0 1.38823,-0.51041 1.38823,-1.53121c0,-0.51041 -0.28702,-0.95857 -0.86106,-1.34448c-0.58576,-0.38591 -1.34138,-0.65979 -2.26687,-0.82163c-1.67526,-0.29877 -3.09278,-0.44816 -4.25258,-0.44816c-0.48032,0 -0.89034,0.17429 -1.23008,0.52285c-0.33974,0.33612 -0.50961,0.73449 -0.50961,1.19509c0,0.47306 0.12887,0.87765 0.38659,1.21377c0.25773,0.33612 0.58576,0.50418 0.98407,0.50418c0.24602,0 0.45103,-0.01867 0.61504,-0.05602h0.47446c0.39831,0 0.69119,0.09959 0.87863,0.29877c0.17572,0.18673 0.26359,0.5353 0.26359,1.04571c0,4.49405 -0.26359,10.6936 -0.79077,18.59866c-0.48032,8.29097 -0.72048,14.51542 -0.72048,18.67335v2.42755c-0.26945,-0.04979 -0.66776,-0.07469 -1.19494,-0.07469c-1.67526,0 -2.51289,0.74693 -2.51289,2.2408v0.37347l1.49367,1.08305c0.04686,0 0.16987,0.01245 0.36902,0.03735c0.19916,0.0249 0.59747,0.03735 1.19494,0.03735c1.35895,0.08714 2.19658,0.13071 2.51289,0.13071zM196.40383,249.88229c0.79663,0 2.43674,-4.3758 4.92034,-13.12738c2.79991,-10.233 5.21907,-19.64436 7.25749,-28.2341v20.91415c0,1.78019 -0.15815,4.81772 -0.47446,9.11259c-0.28116,4.66835 -0.42174,7.68099 -0.42174,9.03792c0,0.38591 0.22259,0.71581 0.66776,0.98969c0.43346,0.27387 0.93135,0.41081 1.49367,0.41081c0.83177,0 1.24766,-0.33612 1.24766,-1.00836l-0.10544,-1.84866c-0.082,-1.35694 -0.12301,-2.25327 -0.12301,-2.68898c0,-2.2408 0.11715,-5.80741 0.35146,-10.69983c0.24602,-4.96711 0.36902,-7.98597 0.36902,-9.05657v-8.14158c0,-1.31958 -0.06443,-3.27406 -0.1933,-5.86343c-0.15229,-2.25325 -0.22844,-4.20773 -0.22844,-5.86343v-0.39214c0,-2.12876 -0.43931,-3.19314 -1.31795,-3.19314c-0.52718,0 -1.18908,0.93989 -1.98571,2.81968c-1.32381,3.04998 -3.00492,8.52749 -5.04334,16.43255c-1.15979,4.59364 -2.51875,10.50065 -4.07685,17.72101c0.04686,-0.17429 -0.26945,1.29469 -0.94892,4.40691l-0.07029,0.31745c0,-4.12058 -0.041,-7.81791 -0.12301,-11.09197l-0.10544,-11.09197v-18.86008c-0.16402,-1.07061 -0.80834,-1.60591 -1.93299,-1.60591c-1.07779,0 -1.61668,0.82785 -1.61668,2.48356v0.39214c0.24602,0.51041 0.36902,1.12663 0.36902,1.84866c0,2.58937 0.05858,6.49833 0.17572,11.72686c0.11715,5.26588 0.17572,9.21841 0.17572,11.85758v19.43897c0,0.67224 0.16987,1.31336 0.50961,1.92335c0.33974,0.62245 0.74977,0.93367 1.23008,0.93367zM183.09865,249.30341c0.76148,0 1.41752,-0.10581 1.96814,-0.31745c0.67947,-0.21163 1.01921,-0.80295 1.01921,-1.77397v-37.02927c0,-0.72203 0.12301,-1.80509 0.36902,-3.24916c0.28116,-1.31958 0.42174,-2.40264 0.42174,-3.24916v-0.18673c-0.67947,-1.19509 -1.18322,-1.9607 -1.51125,-2.29682c-0.55061,0 -1.28866,-0.08714 -2.21415,-0.26143c-0.84349,-0.17429 -1.58154,-0.26143 -2.21415,-0.26143c-0.64433,0 -1.26523,0.20541 -1.8627,0.61622c-0.59747,0.39837 -0.8962,0.87765 -0.8962,1.43785c0,1.26979 0.91964,1.90468 2.75891,1.90468h0.84349c0.2343,-0.03735 0.50961,-0.05602 0.82592,-0.05602c0.36316,0 0.58576,0.01867 0.66776,0.05602c0,1.44407 -0.082,3.18692 -0.24602,5.22854l-0.12301,1.77397l-0.10544,3.51059c0,0.80918 0.05858,2.04162 0.17572,3.69732l0.12301,3.56661l-0.84349,-0.18673c-0.79663,-0.26143 -1.45853,-0.39214 -1.98571,-0.39214c-0.43346,0 -0.83177,0.18051 -1.19494,0.54153c-0.36316,0.36102 -0.54475,0.77805 -0.54475,1.25111c0,0.51041 0.15229,0.97101 0.45689,1.38183c0.29287,0.39837 0.6619,0.59755 1.10707,0.59755l0.72048,-0.07469h0.7732c0.60918,0 1.03092,0.14939 1.26523,0.44816v19.7004l-3.35637,-0.18673c-2.28445,0 -3.42666,0.54775 -3.42666,1.64325v0.26143c0.24602,0.51041 0.69119,0.92744 1.33552,1.25111c0.63261,0.31122 1.24766,0.51041 1.84512,0.59755l1.98571,0.05602z" fill="#ffffff" stroke="#ffffff" stroke-width="1.5" stroke-linecap="square"/><path d="M17.13443,231.60321c0,63.83474 96.86936,115.58302 216.36378,115.58302c119.49442,0 216.36377,-51.74828 216.36377,-115.58302c0,-63.83474 -96.86936,-115.58302 -216.36377,-115.58302c-119.49442,0 -216.36378,51.74828 -216.36378,115.58302z" fill="none" stroke="none" stroke-width="NaN" stroke-linecap="butt"/></g></g></svg>