<svg version="1.1" xmlns="http://www.w3.org/2000/svg" xmlns:xlink="http://www.w3.org/1999/xlink" width="447.07739" height="231.16604" viewBox="0,0,447.07739,231.16604"><g transform="translate(-22.87437,-124.63009)"><g data-paper-data="{&quot;isPaintingLayer&quot;:true}" fill-rule="nonzero" stroke-linejoin="miter" stroke-miterlimit="10" stroke-dasharray="" stroke-dashoffset="0" style="mix-blend-mode: normal"><path d="M433.28655,262.12387c0,-15.37321 0,-51.27953 0,-58.33333c0,-2.30199 -2.43406,-5.66667 -5.96016,-5.66667c-11.14089,0 -72.84927,0 -142.79573,0c-90.09456,0 -193.85671,0 -220.82979,0c-4.32823,0 -6.67923,3.30453 -6.67923,6.66667c0,7.9319 0,40.92113 0,56.33333c0,4.88172 2.70419,8 7.65149,8c50.73126,0 337.32926,0 362.65326,0c3.5261,0 5.96016,-2.69486 5.96016,-7z" fill="#000000" stroke="#000000" stroke-width="15" stroke-linecap="butt"/><path d="M433.28655,262.12387c0,-15.37321 0,-51.27953 0,-58.33333c0,-2.30199 -2.43406,-5.66667 -5.96016,-5.66667c-25.49092,0 -315.71142,0 -363.62552,0c-4.32823,0 -6.67923,3.30453 -6.67923,6.66667c0,7.9319 0,40.92113 0,56.33333c0,4.88172 2.70419,8 7.65149,8c50.73126,0 337.32926,0 362.65326,0c3.5261,0 5.96016,-2.69486 5.96016,-7z" fill="#000000" stroke="#00f000" stroke-width="7" stroke-linecap="butt"/><path d="M433.28655,262.12387c0,-15.37321 0,-51.27953 0,-58.33333c0,-2.30199 -2.43406,-5.66667 -5.96016,-5.66667c-25.49092,0 -315.71142,0 -363.62552,0c-4.32823,0 -6.67923,3.30453 -6.67923,6.66667c0,7.9319 0,40.92113 0,56.33333c0,4.88172 2.70419,8 7.65149,8c50.73126,0 337.32926,0 362.65326,0c3.5261,0 5.96016,-2.69486 5.96016,-7z" fill="#000000" stroke="none" stroke-width="0" stroke-linecap="butt"/><path d="M319.76353,263.86018v-60.91416h-155.73835v60.91416z" fill="#000000" stroke="#000000" stroke-width="2" stroke-linecap="butt"/><path d="M294.22048,259.33246c1.11353,0 2.12418,-0.38591 3.03195,-1.15775c0.90777,-0.75938 1.6945,-1.79887 2.3602,-3.11845c1.19825,-2.29061 2.08787,-5.43396 2.66884,-9.43006c0.41152,-2.76366 0.72016,-5.95057 0.92592,-9.56075l0.05447,-3.37988v-3.4359c0.04841,-1.10795 0.07262,-2.44621 0.07262,-4.01477c0,-2.55202 -0.10287,-4.80528 -0.30864,-6.75975c-0.16946,-2.04162 -0.58097,-4.05834 -1.23457,-6.05017c-0.6657,-1.74285 -1.61583,-2.97529 -2.8504,-3.69732c-0.75042,-0.34857 -1.49479,-0.52285 -2.23311,-0.52285c-2.19075,0 -3.92761,0.89632 -5.21059,2.68896c-1.40401,1.99182 -2.33599,4.22018 -2.79593,6.68506c-0.65359,2.97529 -1.02275,5.81986 -1.10747,8.53372c-0.16946,3.02508 -0.25418,5.87588 -0.25418,8.55239v3.62263c0,0.72203 0.10287,2.08519 0.30864,4.08946c0.16946,1.56856 0.25418,2.90682 0.25418,4.01477v0.24275c0.24207,1.19509 0.36311,2.60182 0.36311,4.22018c0,1.18265 0.24812,2.41509 0.74437,3.69734c0.49625,1.26979 1.19825,2.35284 2.10602,3.24916c0.91987,1.02081 1.95473,1.53121 3.10456,1.53121zM294.09337,255.82188c-0.82305,0 -1.52505,-0.78428 -2.10602,-2.35284c-0.49625,-1.40674 -0.8533,-3.11847 -1.07117,-5.13519c-0.22997,-2.01672 -0.42967,-4.3011 -0.59913,-6.85312c-0.08472,-1.10795 -0.12708,-2.53335 -0.12708,-4.2762l0.07262,-5.86343c0.08472,-2.2906 0.33285,-5.15384 0.74437,-8.58974c0.3268,-2.93794 0.94407,-5.53354 1.85185,-7.78679c0.41152,-1.05815 0.93198,-1.88601 1.56136,-2.48356c0.61728,-0.59755 1.27693,-0.89632 1.97894,-0.89632c1.0288,0 1.79133,0.82785 2.28757,2.48356c0.61728,1.74285 1.0288,3.65998 1.23457,5.75139c0.25418,2.2408 0.39941,4.38201 0.43573,6.42363l0.05447,2.11009c0.04841,0.59755 0.07262,1.40673 0.07262,2.42754v0.24275c0,2.8508 -0.29048,6.35517 -0.87146,10.5131c-0.6657,5.6518 -1.63398,9.66657 -2.90486,12.04433c-0.83514,1.49387 -1.7066,2.2408 -2.61437,2.2408zM265.03367,258.49218c0.82305,0 2.51754,-4.3758 5.0835,-13.12738c2.89276,-10.233 5.39214,-19.64436 7.49816,-28.2341v20.91415c0,1.78019 -0.1634,4.81772 -0.49019,9.11259c-0.29048,4.66835 -0.43573,7.68099 -0.43573,9.03792c0,0.38591 0.22997,0.71581 0.68991,0.98969c0.44783,0.27387 0.96224,0.41081 1.5432,0.41081c0.85935,0 1.28903,-0.33612 1.28903,-1.00836l-0.10893,-1.84866c-0.08472,-1.35694 -0.12708,-2.25327 -0.12708,-2.68898c0,-2.2408 0.12104,-5.80741 0.36311,-10.69983c0.25418,-4.96711 0.38126,-7.98597 0.38126,-9.05657v-8.14158c0,-1.31958 -0.06657,-3.27406 -0.19971,-5.86343c-0.15734,-2.25325 -0.23602,-4.20773 -0.23602,-5.86343v-0.39214c0,-2.12876 -0.45388,-3.19314 -1.36165,-3.19314c-0.54466,0 -1.22851,0.93989 -2.05156,2.81968c-1.36771,3.04998 -3.10456,8.52749 -5.21059,16.43255c-1.19825,4.59364 -2.60228,10.50065 -4.21205,17.72101c0.04841,-0.17429 -0.27839,1.29469 -0.98039,4.40691l-0.07262,0.31745c0,-4.12058 -0.04236,-7.81791 -0.12708,-11.09197l-0.10893,-11.09197v-18.86008c-0.16946,-1.07061 -0.83514,-1.60591 -1.99709,-1.60591c-1.11353,0 -1.6703,0.82785 -1.6703,2.48356v0.39214c0.25418,0.51041 0.38126,1.12663 0.38126,1.84866c0,2.58937 0.06052,6.49833 0.18155,11.72686c0.12104,5.26588 0.18155,9.21841 0.18155,11.85758v19.43897c0,0.67224 0.1755,1.31336 0.52651,1.92335c0.35101,0.62245 0.77463,0.93367 1.27087,0.93367zM251.959,258.24942c0.54466,0 1.03485,-0.20541 1.47058,-0.61622c0.42362,-0.39837 0.63544,-0.87765 0.63544,-1.43785c0,-0.37347 -0.07868,-0.8403 -0.23602,-1.4005c-0.13314,-0.59755 -0.19971,-1.03948 -0.19971,-1.32581c0,-3.78448 0.21181,-11.05464 0.63544,-21.81049c0.41152,-9.17484 0.61728,-16.4201 0.61728,-21.73578c0,-0.37347 -0.14525,-0.67847 -0.43573,-0.91499c-0.29048,-0.23653 -0.64149,-0.35479 -1.05301,-0.35479c-0.49625,0 -0.93198,0.18051 -1.30719,0.54153c-0.37521,0.36102 -0.56281,0.79673 -0.56281,1.30713c0,2.55202 -0.12104,6.38006 -0.36311,11.48411c-0.20576,5.63935 -0.30864,9.46116 -0.30864,11.46544l-0.07262,0.76561v0.76561v0.44816v0.31745c-0.12104,3.69732 -0.18155,9.21841 -0.18155,16.56326v1.66195h-4.77486c-0.85935,0.63489 -1.28903,1.26979 -1.28903,1.90468c0,0.47306 0.15734,0.89009 0.47204,1.25111c0.30259,0.36102 0.65965,0.54153 1.07117,0.54153c0.12104,0 0.35101,-0.04357 0.68991,-0.13071l0.23602,-0.05602c0.25418,0.03735 0.64754,0.05602 1.1801,0.05602h1.05301c0.29048,-0.03735 0.62334,-0.05602 0.99854,-0.05602c0.41152,0.51041 0.98645,0.76561 1.72476,0.76561zM235.41497,257.48382c3.55845,0 5.33767,-0.64112 5.33767,-1.92335c0,-1.02081 -0.62334,-1.53121 -1.87,-1.53121h-0.74437c-0.15734,0.04979 -0.3389,0.07469 -0.54466,0.07469c-0.3389,0 -0.58097,-0.10581 -0.72621,-0.31745c-0.14525,-0.21163 -0.21786,-0.59755 -0.21786,-1.15777c0,-3.61018 0.21181,-8.53995 0.63544,-14.78929c0.36311,-6.49833 0.54466,-11.40319 0.54466,-14.7146c0,-1.19509 -0.01815,-2.27815 -0.05447,-3.24916l-0.07262,-3.24916c0,-1.40673 0.06657,-2.57692 0.19971,-3.51059c0.44783,0.17429 0.91987,0.26143 1.41612,0.26143c0.95618,0 1.43427,-0.51041 1.43427,-1.53121c0,-0.51041 -0.29654,-0.95857 -0.88961,-1.34448c-0.60518,-0.38591 -1.38586,-0.65979 -2.34204,-0.82163c-1.73081,-0.29877 -3.19534,-0.44816 -4.3936,-0.44816c-0.49625,0 -0.91987,0.17429 -1.27087,0.52285c-0.35101,0.33612 -0.52651,0.73449 -0.52651,1.19509c0,0.47306 0.13314,0.87765 0.39941,1.21377c0.26627,0.33612 0.60518,0.50418 1.0167,0.50418c0.25418,0 0.46599,-0.01867 0.63544,-0.05602h0.49019c0.41152,0 0.71412,0.09959 0.90777,0.29877c0.18155,0.18673 0.27233,0.5353 0.27233,1.04571c0,4.49405 -0.27233,10.6936 -0.81699,18.59866c-0.49625,8.29097 -0.74437,14.51542 -0.74437,18.67335v2.42755c-0.27839,-0.04979 -0.68991,-0.07469 -1.23457,-0.07469c-1.73081,0 -2.59622,0.74693 -2.59622,2.2408v0.37347l1.5432,1.08305c0.04841,0 0.1755,0.01245 0.38126,0.03735c0.20576,0.0249 0.61728,0.03735 1.23457,0.03735c1.40401,0.08714 2.26942,0.13071 2.59622,0.13071zM208.0886,258.49218c0.82305,0 2.51754,-4.3758 5.0835,-13.12738c2.89276,-10.233 5.39214,-19.64436 7.49816,-28.2341v20.91415c0,1.78019 -0.1634,4.81772 -0.49019,9.11259c-0.29048,4.66835 -0.43573,7.68099 -0.43573,9.03792c0,0.38591 0.22997,0.71581 0.68991,0.98969c0.44783,0.27387 0.96224,0.41081 1.5432,0.41081c0.85935,0 1.28903,-0.33612 1.28903,-1.00836l-0.10893,-1.84866c-0.08472,-1.35694 -0.12708,-2.25327 -0.12708,-2.68898c0,-2.2408 0.12104,-5.80741 0.36311,-10.69983c0.25418,-4.96711 0.38126,-7.98597 0.38126,-9.05657v-8.14158c0,-1.31958 -0.06657,-3.27406 -0.19971,-5.86343c-0.15734,-2.25325 -0.23602,-4.20773 -0.23602,-5.86343v-0.39214c0,-2.12876 -0.45388,-3.19314 -1.36165,-3.19314c-0.54466,0 -1.22851,0.93989 -2.05156,2.81968c-1.36771,3.04998 -3.10456,8.52749 -5.21059,16.43255c-1.19825,4.59364 -2.60228,10.50065 -4.21205,17.72101c0.04841,-0.17429 -0.27839,1.29469 -0.98039,4.40691l-0.07262,0.31745c0,-4.12058 -0.04236,-7.81791 -0.12708,-11.09197l-0.10893,-11.09197v-18.86008c-0.16946,-1.07061 -0.83514,-1.60591 -1.99709,-1.60591c-1.11353,0 -1.6703,0.82785 -1.6703,2.48356v0.39214c0.25418,0.51041 0.38126,1.12663 0.38126,1.84866c0,2.58937 0.06052,6.49833 0.18155,11.72686c0.12104,5.26588 0.18155,9.21841 0.18155,11.85758v19.43897c0,0.67224 0.1755,1.31336 0.52651,1.92335c0.35101,0.62245 0.77463,0.93367 1.27087,0.93367zM194.34221,257.9133c0.78673,0 1.46453,-0.10581 2.03341,-0.31745c0.702,-0.21163 1.05301,-0.80295 1.05301,-1.77397v-37.02927c0,-0.72203 0.12708,-1.80509 0.38126,-3.24916c0.29048,-1.31958 0.43573,-2.40264 0.43573,-3.24916v-0.18673c-0.702,-1.19509 -1.22246,-1.9607 -1.56136,-2.29682c-0.56887,0 -1.33139,-0.08714 -2.28757,-0.26143c-0.87146,-0.17429 -1.63398,-0.26143 -2.28757,-0.26143c-0.6657,0 -1.30719,0.20541 -1.92447,0.61622c-0.61728,0.39837 -0.92592,0.87765 -0.92592,1.43785c0,1.26979 0.95013,1.90468 2.8504,1.90468h0.87146c0.24207,-0.03735 0.52651,-0.05602 0.8533,-0.05602c0.37521,0 0.60518,0.01867 0.68991,0.05602c0,1.44407 -0.08472,3.18692 -0.25418,5.22854l-0.12708,1.77397l-0.10893,3.51059c0,0.80918 0.06052,2.04162 0.18155,3.69732l0.12708,3.56661l-0.87146,-0.18673c-0.82305,-0.26143 -1.5069,-0.39214 -2.05156,-0.39214c-0.44783,0 -0.85935,0.18051 -1.23457,0.54153c-0.37521,0.36102 -0.56281,0.77805 -0.56281,1.25111c0,0.51041 0.15734,0.97101 0.47204,1.38183c0.30259,0.39837 0.68385,0.59755 1.14379,0.59755l0.74437,-0.07469h0.79884c0.62938,0 1.06511,0.14939 1.30719,0.44816v19.7004l-3.46767,-0.18673c-2.3602,0 -3.54029,0.54775 -3.54029,1.64325v0.26143c0.25418,0.51041 0.71412,0.92744 1.3798,1.25111c0.65359,0.31122 1.28903,0.51041 1.90631,0.59755l2.05156,0.05602z" fill="#00f000" stroke="#03f403" stroke-width="1.5" stroke-linecap="square"/><path d="M22.87437,240.21311c0,63.83474 100.08168,115.58302 223.5387,115.58302c123.45702,0 223.53869,-51.74828 223.53869,-115.58302c0,-63.83474 -100.08168,-115.58302 -223.53869,-115.58302c-123.45702,0 -223.5387,51.74828 -223.5387,115.58302z" fill="none" stroke="none" stroke-width="NaN" stroke-linecap="butt"/></g></g></svg>